<?xml version="1.0" encoding="UTF-8"?>
<svg xmlns="http://www.w3.org/2000/svg" xmlns:xlink="http://www.w3.org/1999/xlink" width="3000" height="3000" viewBox="0 0 3000 3000">
<defs>
<clipPath id="clip-0">

</clipPath>
<clipPath id="clip-1">
<path clip-rule="evenodd" d="M 2471.679688 1034.511719 C 2479.421875 1007.71875 2474.121094 978.839844 2457.359375 956.550781 C 2440.589844 934.25 2414.328125 921.140625 2386.429688 921.140625 C 2193.671875 921.140625 1817.46875 921.140625 1664.871094 921.140625 C 1625.359375 921.140625 1590.609375 947.261719 1579.628906 985.21875 C 1500.148438 1260.03125 1192.128906 2325.046875 1192.128906 2325.046875 C 1420.058594 2274.335938 1653.980469 2229.308594 2035.539062 2197.429688 C 2074.789062 2194.148438 2107.359375 2191.269531 2143.839844 2168.578125 C 2143.839844 2168.578125 2382.800781 1341.960938 2471.679688 1034.511719 Z M 2471.679688 1034.511719 "/>
</clipPath>
<clipPath id="clip-2">
<path clip-rule="nonzero" d="M 710 1636 L 1018 1636 L 1018 2011 L 710 2011 Z M 710 1636 "/>
</clipPath>
<clipPath id="clip-3">
<path clip-rule="evenodd" d="M 596.863281 1948.089844 C 599.910156 1943.910156 596.101562 1926.988281 595.808594 1922.070312 C 594.492188 1900.089844 593.003906 1877.839844 593.960938 1855.808594 C 592.816406 1855.179688 595.128906 1848.621094 595.328125 1847.601562 C 596.941406 1839.410156 597.933594 1831.121094 598.394531 1822.78125 C 599.652344 1800.109375 599.042969 1778.691406 593.359375 1756.691406 C 569.1875 1663.058594 551.816406 1571.210938 576.042969 1475.28125 C 583.605469 1445.320312 598.90625 1394.988281 628.582031 1378.128906 C 647.847656 1367.179688 675.769531 1388.921875 691.722656 1397.460938 C 735.472656 1420.878906 782.105469 1446.890625 831.957031 1453.808594 C 840.671875 1455.03125 849.507812 1455.359375 858.292969 1454.871094 C 864.433594 1454.519531 870.804688 1453.75 876.453125 1451.160156 C 881.066406 1449.039062 884.550781 1445.75 887.167969 1441.421875 C 889.480469 1437.578125 890.726562 1433.28125 891.019531 1428.820312 C 891.214844 1425.839844 891.144531 1422.691406 890.613281 1419.738281 C 889.496094 1413.53125 881.496094 1402.640625 877.535156 1413.410156 C 875.308594 1419.480469 876.804688 1425.921875 878.960938 1431.738281 C 861.113281 1445.828125 835.636719 1443.289062 814.839844 1437.441406 C 776.21875 1426.578125 742.121094 1406.398438 706.453125 1388.820312 C 694.980469 1383.171875 682.886719 1378.128906 670.5625 1374.660156 C 664.34375 1372.898438 654.746094 1372.710938 650.324219 1367.21875 C 643.960938 1359.320312 645.328125 1344.988281 646.140625 1335.648438 C 646.683594 1329.410156 647.503906 1322.71875 649.730469 1316.808594 C 652.816406 1308.621094 666.25 1316.609375 671.503906 1318.839844 C 673.414062 1319.660156 675.316406 1320.5 677.210938 1321.359375 C 706.625 1334.71875 737.078125 1346.039062 767.003906 1358.191406 C 781.90625 1364.25 796.765625 1370.53125 811.378906 1377.269531 C 826.769531 1384.359375 843.058594 1393 860.554688 1388.769531 C 873.109375 1385.730469 879.195312 1371.191406 877.09375 1359.339844 C 876.269531 1354.71875 872.324219 1343.128906 865.351562 1344.78125 C 864.023438 1345.101562 868.714844 1348.859375 869.0625 1349.171875 C 872.214844 1351.980469 875.386719 1354.589844 877.785156 1358.128906 C 882.9375 1365.730469 881.066406 1376.699219 886.578125 1383.421875 C 889.304688 1386.738281 894.734375 1387.921875 898.472656 1389.710938 C 904.371094 1392.53125 906.636719 1398.570312 911.289062 1403.171875 C 911.289062 1403.171875 911.289062 1403.171875 911.59375 1408.320312 C 910.984375 1409.671875 919.496094 1416.359375 920.222656 1417.46875 C 925.035156 1424.878906 929.3125 1432.628906 933.800781 1440.238281 C 949.074219 1466.128906 968.820312 1496.839844 972.015625 1527.699219 C 965.199219 1532.789062 950.984375 1527.398438 943.542969 1525.171875 C 922.421875 1518.859375 903.121094 1499.980469 885.683594 1487.058594 C 879.328125 1482.351562 868.449219 1472.691406 859.796875 1473.539062 C 850.253906 1474.46875 861.652344 1488.398438 864.367188 1490.78125 C 877.3125 1502.140625 895.433594 1505.511719 910.496094 1513.199219 C 930.441406 1523.378906 949.910156 1537.839844 973.210938 1537.988281 C 984.019531 1538.058594 994.644531 1534.808594 1005.039062 1532.191406 C 1008.238281 1531.378906 1014.539062 1529.640625 1016.628906 1533.429688 C 1019.171875 1538.050781 1013.519531 1543.410156 1010.621094 1546.078125 C 1000.851562 1555.089844 990.679688 1563.511719 981.929688 1573.570312 C 962.757812 1595.601562 954.496094 1624.019531 946.628906 1651.558594 C 940.226562 1673.960938 934.765625 1698.191406 935.695312 1721.628906 C 935.980469 1728.898438 938.054688 1747.820312 950.035156 1738.839844 C 963.21875 1728.949219 959.386719 1713.160156 960.738281 1699.429688 C 961.152344 1695.21875 963.273438 1688.480469 968.664062 1690.628906 C 975.460938 1693.351562 974.382812 1704.011719 972.515625 1709.449219 C 968.011719 1722.578125 951.738281 1734.480469 938.601562 1736.828125 C 919.039062 1740.328125 896.007812 1727.28125 877.605469 1721.96875 C 836.203125 1710.039062 792.785156 1710.589844 753.539062 1690.058594 C 735.628906 1680.679688 713.351562 1664.53125 713.785156 1641.671875 C 713.984375 1631.089844 722.976562 1628.550781 727.421875 1638.101562 C 736.457031 1657.519531 737.300781 1678.109375 752.964844 1694.589844 C 769.261719 1711.738281 791.703125 1710 813.152344 1713.328125 C 824.226562 1715.050781 834.136719 1719.140625 844.1875 1723.910156 C 844.21875 1725.960938 847.441406 1725.878906 849.054688 1726.328125 C 854.894531 1727.960938 860.699219 1729.699219 866.539062 1731.320312 C 880.957031 1735.308594 895.578125 1738.039062 909.886719 1742.53125 C 916.808594 1744.699219 925.425781 1747.511719 929.300781 1754.210938 C 943.050781 1777.980469 937.65625 1808.921875 943.90625 1834.808594 C 948.703125 1854.679688 961.144531 1870.699219 968.75 1889.359375 C 976.699219 1908.871094 1001.011719 1920.890625 1000.601562 1941.628906 C 1000.441406 1949.640625 1001.449219 1959.789062 996.519531 1966.691406 C 990.011719 1975.789062 976.816406 1979.28125 966.652344 1982.128906 C 964.3125 1986.359375 952.839844 1989.171875 948.804688 1991.019531 C 926.878906 2001.0625 902.707031 2005.660156 878.855469 2008.171875 C 788.070312 2017.722656 674.703125 1990.769531 596.863281 1948.089844 Z M 596.863281 1948.089844 "/>
</clipPath>
<clipPath id="clip-4">
<path clip-rule="nonzero" d="M 613 1042 L 932 1042 L 932 1349 L 613 1349 Z M 613 1042 "/>
</clipPath>
<clipPath id="clip-5">
<path clip-rule="evenodd" d="M 648.140625 1208.050781 C 635.585938 1203.289062 624.089844 1200.039062 616.109375 1214.660156 C 610.171875 1225.53125 614.082031 1239.359375 619.972656 1249.410156 C 631.890625 1269.761719 651.664062 1285.410156 675.957031 1279.269531 C 683.4375 1277.371094 683.414062 1268.679688 676.597656 1265.789062 C 671.148438 1263.480469 666.371094 1267.878906 661.210938 1268.648438 C 651.5625 1270.078125 640.53125 1263.21875 635.167969 1255.660156 C 621.269531 1236.058594 633.648438 1211.089844 658.921875 1216.988281 C 670.460938 1219.679688 678.472656 1229.558594 684.503906 1239.171875 C 696.355469 1258.058594 703.691406 1279.039062 717.621094 1296.761719 C 749.761719 1337.660156 810.871094 1353.308594 860.84375 1347.570312 C 890.425781 1344.179688 918.847656 1330.75 928.636719 1300.539062 C 935.835938 1278.320312 928.902344 1255.359375 926.734375 1232.921875 C 924.371094 1208.460938 916.484375 1173.808594 909.535156 1149.960938 C 901.265625 1121.570312 890.527344 1109.539062 874.257812 1085.769531 C 862.660156 1068.839844 854.679688 1046.359375 839.253906 1032.429688 C 829.1875 1023.328125 814.664062 1018.519531 801.40625 1016.890625 C 793.332031 1015.898438 785.15625 1015.820312 777.046875 1016.390625 C 765.070312 1017.230469 752.828125 1019.351562 741.492188 1023.371094 C 674.390625 1047.199219 681.933594 1133.230469 686.542969 1190.730469 C 687.734375 1205.578125 691.421875 1219.320312 700.777344 1231.179688 C 704.753906 1236.230469 709.347656 1240.050781 714.46875 1243.839844 C 715.398438 1244.53125 717.925781 1247.128906 716.152344 1248.289062 C 711.390625 1251.429688 701.132812 1242.421875 698.488281 1239.589844 C 686.117188 1226.378906 667.554688 1214.660156 648.140625 1208.050781 "/>
</clipPath>
<clipPath id="clip-6">
<path clip-rule="nonzero" d="M 941 1338 L 1722 1338 L 1722 1736 L 941 1736 Z M 941 1338 "/>
</clipPath>
<clipPath id="clip-7">
<path clip-rule="evenodd" d="M 971.113281 1617.828125 C 975.628906 1647.910156 926.980469 1711.589844 946.265625 1726.089844 C 980.335938 1751.691406 1138.839844 1718.921875 1193.71875 1704.710938 C 1296.761719 1678.03125 1373.570312 1638.800781 1476.589844 1528.628906 C 1496.28125 1507.578125 1546.199219 1483.710938 1560.421875 1458.480469 C 1560.421875 1458.488281 1560.421875 1458.488281 1560.421875 1458.488281 C 1560 1458.371094 1560.589844 1456.421875 1560.640625 1456.121094 C 1561.089844 1453.339844 1561.25 1450.539062 1561.269531 1447.71875 C 1561.351562 1440.078125 1561.640625 1431.660156 1560.070312 1424.160156 C 1558.230469 1415.359375 1550.960938 1410.761719 1547.539062 1403.011719 C 1546.550781 1400.78125 1545.949219 1395.730469 1549.441406 1395.351562 C 1553.519531 1394.910156 1557.199219 1399.441406 1559.410156 1402.191406 C 1567.308594 1411.988281 1568.679688 1423.011719 1567.578125 1435.171875 C 1567.21875 1439.128906 1565.261719 1448.878906 1571.679688 1449.070312 C 1576.25 1449.210938 1580.539062 1446.28125 1584.089844 1443.761719 C 1592.28125 1437.960938 1599.628906 1430.960938 1607.070312 1424.261719 C 1620.921875 1411.761719 1636.101562 1399.679688 1653.210938 1391.96875 C 1666.578125 1385.949219 1681.46875 1383.21875 1694.398438 1376.308594 C 1702.628906 1371.921875 1716.199219 1361.46875 1714.890625 1350.53125 C 1713.839844 1341.828125 1700.480469 1342.601562 1694.269531 1343.261719 C 1673.710938 1345.449219 1655.941406 1357.5 1640.820312 1370.828125 C 1638.148438 1373.191406 1626.628906 1383.070312 1622.828125 1377.101562 C 1621.300781 1374.699219 1624.070312 1371.921875 1625.878906 1370.738281 C 1631.539062 1367.011719 1638.339844 1365.011719 1644.359375 1361.910156 C 1656.71875 1355.539062 1667.941406 1348.320312 1681.851562 1345.691406 C 1690.640625 1344.03125 1702.089844 1347.320312 1710.28125 1343.78125 C 1714.628906 1341.890625 1714.980469 1335.539062 1714.289062 1331.570312 C 1711.960938 1318.230469 1700.269531 1312.660156 1687.558594 1313.648438 C 1667.949219 1315.179688 1652.140625 1328.289062 1633.53125 1333.320312 C 1627.21875 1335.03125 1620.390625 1336.378906 1613.820312 1336.039062 C 1611.71875 1335.941406 1608.148438 1335.808594 1606.941406 1333.691406 C 1605.429688 1331.019531 1609.339844 1329.308594 1611.171875 1328.570312 C 1617.609375 1325.980469 1624.871094 1325.199219 1631.730469 1324.589844 C 1644.441406 1323.46875 1657.109375 1323.480469 1669.710938 1321.171875 C 1679.589844 1319.351562 1688.71875 1315.679688 1698.371094 1313.121094 C 1706.019531 1311.101562 1718.339844 1309.46875 1718.789062 1299.359375 C 1719.421875 1285.121094 1704.898438 1274.101562 1691.898438 1273.078125 C 1680.558594 1272.199219 1669.699219 1275.871094 1659.019531 1279.171875 C 1644.640625 1283.628906 1616.871094 1299.761719 1621.03125 1302.628906 C 1622.441406 1303.601562 1641.96875 1292.289062 1652.109375 1286.738281 C 1670.039062 1276.910156 1687.878906 1267.589844 1708.121094 1263.570312 C 1717.921875 1261.621094 1727.96875 1262.578125 1737.820312 1261.269531 C 1745.46875 1260.25 1756.800781 1254.058594 1752.230469 1244.410156 C 1749.390625 1238.441406 1741.910156 1236.078125 1735.941406 1234.988281 C 1721.488281 1232.359375 1706.121094 1233.980469 1691.679688 1235.761719 C 1657.421875 1239.980469 1615.859375 1245.800781 1590.539062 1271.75 C 1579.390625 1283.191406 1572.691406 1298.621094 1566.191406 1313 C 1566.390625 1313.140625 1562.148438 1319.261719 1561.890625 1319.628906 C 1556.480469 1327.511719 1550.101562 1334.800781 1543.859375 1342.03125 C 1517.308594 1372.828125 1480.121094 1390.339844 1444.261719 1408.050781 C 1366.078125 1446.648438 1287.691406 1485.898438 1204.949219 1513.960938 C 1164.660156 1527.621094 1122.761719 1542.300781 1079.828125 1544.058594 C 1061.660156 1544.808594 1045.28125 1539.109375 1027.53125 1537.371094 C 1026.738281 1540.289062 966.371094 1586.210938 971.113281 1617.828125 Z M 971.113281 1617.828125 "/>
</clipPath>
<clipPath id="clip-8">
<path clip-rule="nonzero" d="M 1619 1233 L 1754 1233 L 1754 1301 L 1619 1301 Z M 1619 1233 "/>
</clipPath>
<clipPath id="clip-9">
<path clip-rule="evenodd" d="M 971.113281 1617.828125 C 975.628906 1647.910156 926.980469 1711.589844 946.265625 1726.089844 C 980.335938 1751.691406 1138.839844 1718.921875 1193.71875 1704.710938 C 1296.761719 1678.03125 1373.570312 1638.800781 1476.589844 1528.628906 C 1496.28125 1507.578125 1546.199219 1483.710938 1560.421875 1458.480469 C 1560.421875 1458.488281 1560.421875 1458.488281 1560.421875 1458.488281 C 1560 1458.371094 1560.589844 1456.421875 1560.640625 1456.121094 C 1561.089844 1453.339844 1561.25 1450.539062 1561.269531 1447.71875 C 1561.351562 1440.078125 1561.640625 1431.660156 1560.070312 1424.160156 C 1558.230469 1415.359375 1550.960938 1410.761719 1547.539062 1403.011719 C 1546.550781 1400.78125 1545.949219 1395.730469 1549.441406 1395.351562 C 1553.519531 1394.910156 1557.199219 1399.441406 1559.410156 1402.191406 C 1567.308594 1411.988281 1568.679688 1423.011719 1567.578125 1435.171875 C 1567.21875 1439.128906 1565.261719 1448.878906 1571.679688 1449.070312 C 1576.25 1449.210938 1580.539062 1446.28125 1584.089844 1443.761719 C 1592.28125 1437.960938 1599.628906 1430.960938 1607.070312 1424.261719 C 1620.921875 1411.761719 1636.101562 1399.679688 1653.210938 1391.96875 C 1666.578125 1385.949219 1681.46875 1383.21875 1694.398438 1376.308594 C 1702.628906 1371.921875 1716.199219 1361.46875 1714.890625 1350.53125 C 1713.839844 1341.828125 1700.480469 1342.601562 1694.269531 1343.261719 C 1673.710938 1345.449219 1655.941406 1357.5 1640.820312 1370.828125 C 1638.148438 1373.191406 1626.628906 1383.070312 1622.828125 1377.101562 C 1621.300781 1374.699219 1624.070312 1371.921875 1625.878906 1370.738281 C 1631.539062 1367.011719 1638.339844 1365.011719 1644.359375 1361.910156 C 1656.71875 1355.539062 1667.941406 1348.320312 1681.851562 1345.691406 C 1690.640625 1344.03125 1702.089844 1347.320312 1710.28125 1343.78125 C 1714.628906 1341.890625 1714.980469 1335.539062 1714.289062 1331.570312 C 1711.960938 1318.230469 1700.269531 1312.660156 1687.558594 1313.648438 C 1667.949219 1315.179688 1652.140625 1328.289062 1633.53125 1333.320312 C 1627.21875 1335.03125 1620.390625 1336.378906 1613.820312 1336.039062 C 1611.71875 1335.941406 1608.148438 1335.808594 1606.941406 1333.691406 C 1605.429688 1331.019531 1609.339844 1329.308594 1611.171875 1328.570312 C 1617.609375 1325.980469 1624.871094 1325.199219 1631.730469 1324.589844 C 1644.441406 1323.46875 1657.109375 1323.480469 1669.710938 1321.171875 C 1679.589844 1319.351562 1688.71875 1315.679688 1698.371094 1313.121094 C 1706.019531 1311.101562 1718.339844 1309.46875 1718.789062 1299.359375 C 1719.421875 1285.121094 1704.898438 1274.101562 1691.898438 1273.078125 C 1680.558594 1272.199219 1669.699219 1275.871094 1659.019531 1279.171875 C 1644.640625 1283.628906 1616.871094 1299.761719 1621.03125 1302.628906 C 1622.441406 1303.601562 1641.96875 1292.289062 1652.109375 1286.738281 C 1670.039062 1276.910156 1687.878906 1267.589844 1708.121094 1263.570312 C 1717.921875 1261.621094 1727.96875 1262.578125 1737.820312 1261.269531 C 1745.46875 1260.25 1756.800781 1254.058594 1752.230469 1244.410156 C 1749.390625 1238.441406 1741.910156 1236.078125 1735.941406 1234.988281 C 1721.488281 1232.359375 1706.121094 1233.980469 1691.679688 1235.761719 C 1657.421875 1239.980469 1615.859375 1245.800781 1590.539062 1271.75 C 1579.390625 1283.191406 1572.691406 1298.621094 1566.191406 1313 C 1566.390625 1313.140625 1562.148438 1319.261719 1561.890625 1319.628906 C 1556.480469 1327.511719 1550.101562 1334.800781 1543.859375 1342.03125 C 1517.308594 1372.828125 1480.121094 1390.339844 1444.261719 1408.050781 C 1366.078125 1446.648438 1287.691406 1485.898438 1204.949219 1513.960938 C 1164.660156 1527.621094 1122.761719 1542.300781 1079.828125 1544.058594 C 1061.660156 1544.808594 1045.28125 1539.109375 1027.53125 1537.371094 C 1026.738281 1540.289062 966.371094 1586.210938 971.113281 1617.828125 Z M 971.113281 1617.828125 "/>
</clipPath>
</defs>
<path fill-rule="evenodd" fill="rgb(84.375%, 84.764099%, 67.576599%)" fill-opacity="1" d="M 1221.269531 941.390625 C 1347.261719 1797.960938 2376.078125 706.578125 2604.539062 1454.539062 C 2700.828125 1769.800781 2309.148438 2306.53125 1781.820312 2169.027344 C 1406.230469 2071.09375 1320.21875 2348.417969 960.15625 2386.980469 C 528.921875 2433.167969 222.941406 2152.554688 314.585938 1563.46875 C 400.59375 1010.609375 1153.46875 480.390625 1221.269531 941.390625 "/>
<path fill-rule="evenodd" fill="rgb(84.375%, 84.764099%, 67.576599%)" fill-opacity="1" d="M 1997.238281 903.550781 C 1973.5 918.5 1951.421875 953.828125 1946.800781 970.988281 C 1930.050781 1033.230469 1972.46875 1084.410156 2023.808594 1113.359375 C 2070.058594 1139.429688 2125.839844 1154.488281 2178.859375 1145.429688 C 2262.578125 1131.109375 2335.050781 1079.660156 2420.480469 1121.511719 C 2500.441406 1160.671875 2524.269531 1249.191406 2572.730469 1316.269531 C 2590.738281 1341.210938 2624.371094 1368.429688 2647.738281 1333.148438 C 2702.28125 1250.828125 2608.179688 1166.371094 2588.359375 1092.269531 C 2565.890625 1008.238281 2602.21875 911.511719 2536.738281 839.339844 C 2501.898438 800.941406 2447.019531 794.828125 2398.679688 803.621094 C 2322.398438 817.488281 2250.671875 857.398438 2173.070312 863 C 2116.628906 867.070312 2054.058594 867.75 1997.238281 903.550781 "/>
<path fill-rule="evenodd" fill="rgb(84.375%, 84.764099%, 67.576599%)" fill-opacity="1" d="M 2622.949219 1393.46875 C 2619.171875 1405.871094 2616.421875 1420.398438 2623.730469 1431.769531 C 2630.308594 1441.988281 2641.359375 1450.109375 2648.71875 1460.039062 C 2655.269531 1468.890625 2662.738281 1487.960938 2680.421875 1479.28125 C 2682.621094 1478.191406 2684.570312 1476.78125 2686.210938 1475.191406 C 2688.601562 1472.871094 2690.550781 1470.261719 2692.140625 1467.539062 C 2698.769531 1456.210938 2699.78125 1444 2700.75 1431.699219 C 2702.410156 1410.808594 2702.828125 1388.871094 2693.859375 1368.878906 C 2691.570312 1363.789062 2688.519531 1358.898438 2684.28125 1354.660156 C 2667.480469 1337.859375 2629.988281 1370.410156 2622.949219 1393.46875 "/>
<path fill-rule="evenodd" fill="rgb(84.375%, 84.764099%, 67.576599%)" fill-opacity="1" d="M 1258.640625 2357.324219 C 1429.808594 2367.414062 1748.820312 2545.1875 1276.191406 2391.886719 C 1161.71875 2354.753906 1039.648438 2448.902344 921.070312 2469.484375 C 816.378906 2487.652344 687.714844 2498.828125 588.5625 2452.222656 C 572.511719 2444.679688 433.558594 2358.039062 500.296875 2329.945312 C 531.925781 2316.628906 645.703125 2391.234375 686.21875 2400.613281 C 812.472656 2429.847656 944.933594 2416.808594 1069.800781 2385.378906 C 1124.808594 2371.527344 1202.609375 2366.195312 1258.640625 2357.324219 "/>
<path fill-rule="evenodd" fill="rgb(65.039062%, 63.476562%, 48.608398%)" fill-opacity="1" d="M 1576.550781 709.578125 L 1592.941406 725.96875 L 1573.828125 745.078125 L 1557.441406 728.691406 L 1549.839844 736.289062 L 1566.230469 752.679688 L 1547.121094 771.789062 L 1530.730469 755.398438 L 1471.328125 814.800781 C 1483.660156 840.628906 1479.128906 872.519531 1457.75 893.890625 C 1430.628906 921.011719 1386.589844 921.011719 1359.46875 893.890625 C 1332.351562 866.769531 1332.351562 822.730469 1359.46875 795.609375 C 1380.839844 774.238281 1412.730469 769.710938 1438.558594 782.03125 L 1562.398438 658.191406 L 1595.171875 690.960938 Z M 1433.179688 820.179688 C 1446.738281 833.738281 1446.738281 855.761719 1433.179688 869.320312 C 1419.621094 882.878906 1397.601562 882.878906 1384.039062 869.320312 C 1370.480469 855.761719 1370.480469 833.738281 1384.039062 820.179688 C 1397.601562 806.621094 1419.621094 806.621094 1433.179688 820.179688 "/>
<path fill-rule="evenodd" fill="rgb(65.039062%, 63.476562%, 48.608398%)" fill-opacity="1" d="M 1912.53125 534.398438 C 1919.699219 522.25 1932.761719 514.800781 1946.859375 514.800781 C 1960.96875 514.800781 1974.019531 522.25 1981.199219 534.398438 C 2017.539062 595.921875 2074.609375 692.550781 2111.390625 754.828125 C 2118.679688 767.160156 2118.789062 782.441406 2111.691406 794.871094 C 2104.589844 807.308594 2091.378906 814.980469 2077.058594 814.980469 C 2003.941406 814.980469 1889.789062 814.980469 1816.671875 814.980469 C 1802.351562 814.980469 1789.128906 807.308594 1782.039062 794.871094 C 1774.941406 782.441406 1775.050781 767.160156 1782.328125 754.828125 C 1819.121094 692.550781 1876.191406 595.921875 1912.53125 534.398438 "/>
<path fill-rule="nonzero" fill="rgb(100%, 100%, 100%)" fill-opacity="1" d="M 1960.929688 718.03125 L 1931.820312 718.03125 L 1928.621094 600.269531 L 1964.269531 600.269531 Z M 1927.640625 754.03125 C 1927.640625 749.671875 1929.359375 746.058594 1932.800781 743.199219 C 1936.230469 740.328125 1940.921875 738.898438 1946.859375 738.898438 C 1952.808594 738.898438 1957.5 740.328125 1960.929688 743.199219 C 1964.371094 746.058594 1966.089844 749.671875 1966.089844 754.03125 C 1966.089844 758.238281 1964.410156 761.75 1961.070312 764.578125 C 1957.730469 767.410156 1952.988281 768.820312 1946.859375 768.820312 C 1940.738281 768.820312 1936 767.410156 1932.660156 764.578125 C 1929.308594 761.75 1927.640625 758.238281 1927.640625 754.03125 "/>
<path fill-rule="evenodd" fill="rgb(5.099487%, 5.099487%, 5.099487%)" fill-opacity="1" d="M 2518.511719 1010.878906 C 2526.488281 984.039062 2521.320312 955 2504.578125 932.550781 C 2487.828125 910.101562 2461.460938 896.871094 2433.449219 896.871094 C 2240.421875 896.871094 1865.171875 896.871094 1712.808594 896.871094 C 1673.300781 896.871094 1638.550781 923 1627.578125 960.949219 C 1548.089844 1235.769531 1240.070312 2300.78125 1240.070312 2300.78125 L 2143.71875 2167.96875 C 2152.039062 2164.730469 2163.109375 2159.257812 2180.441406 2148.496094 C 2180.441406 2148.496094 2426.78125 1319.558594 2518.511719 1010.878906 "/>
<path fill-rule="evenodd" fill="rgb(18.406677%, 13.305664%, 34.49707%)" fill-opacity="1" d="M 2471.679688 1034.511719 C 2479.421875 1007.71875 2474.121094 978.839844 2457.359375 956.550781 C 2440.589844 934.25 2414.328125 921.140625 2386.429688 921.140625 C 2193.671875 921.140625 1817.46875 921.140625 1664.871094 921.140625 C 1625.359375 921.140625 1590.609375 947.261719 1579.628906 985.21875 C 1500.148438 1260.03125 1192.128906 2325.046875 1192.128906 2325.046875 C 1420.058594 2274.335938 1653.980469 2229.308594 2035.539062 2197.429688 C 2074.789062 2194.148438 2107.359375 2191.269531 2143.839844 2168.578125 C 2143.839844 2168.578125 2382.800781 1341.960938 2471.679688 1034.511719 "/>
<g clip-path="url(#clip-0)">
<g clip-path="url(#clip-1)">
<path fill-rule="evenodd" fill="rgb(100%, 100%, 100%)" fill-opacity="1" d="M 2438.789062 982.398438 C 2439.71875 979.191406 2439.078125 975.71875 2437.070312 973.050781 C 2435.058594 970.371094 2431.910156 968.800781 2428.558594 968.800781 C 2327.488281 968.800781 1717.410156 968.800781 1640.328125 968.800781 C 1635.589844 968.800781 1631.421875 971.929688 1630.101562 976.488281 C 1598.46875 1085.839844 1240.070312 2325.046875 1240.070312 2325.046875 L 2050.46875 2325.046875 C 2050.46875 2325.046875 2397.808594 1124.101562 2438.789062 982.398438 "/>
</g>
</g>
<path fill-rule="evenodd" fill="rgb(65.039062%, 63.476562%, 48.608398%)" fill-opacity="1" d="M 2186.339844 1596.511719 C 2190.210938 1583.148438 2188.609375 1570.328125 2181.890625 1560.871094 C 2175.171875 1551.421875 2163.890625 1546.109375 2150.519531 1546.109375 C 2027.601562 1546.109375 1713.511719 1546.109375 1590.589844 1546.109375 C 1577.21875 1546.109375 1562.859375 1551.421875 1550.679688 1560.871094 C 1538.488281 1570.328125 1529.480469 1583.148438 1525.609375 1596.511719 C 1525.609375 1596.519531 1525.609375 1596.519531 1525.609375 1596.519531 C 1521.738281 1609.890625 1523.339844 1622.710938 1530.058594 1632.160156 C 1536.78125 1641.609375 1548.058594 1646.921875 1561.429688 1646.921875 C 1684.351562 1646.921875 1998.449219 1646.921875 2121.371094 1646.921875 C 2134.730469 1646.921875 2149.089844 1641.609375 2161.269531 1632.160156 C 2173.460938 1622.710938 2182.480469 1609.890625 2186.339844 1596.519531 C 2186.339844 1596.519531 2186.339844 1596.519531 2186.339844 1596.511719 "/>
<path fill-rule="evenodd" fill="rgb(65.039062%, 63.476562%, 48.608398%)" fill-opacity="1" d="M 2134.890625 1774.421875 C 2138.761719 1761.050781 2137.148438 1748.230469 2130.441406 1738.78125 C 2123.71875 1729.328125 2112.429688 1724.019531 2099.070312 1724.019531 C 1976.148438 1724.019531 1662.050781 1724.019531 1539.128906 1724.019531 C 1525.769531 1724.019531 1511.410156 1729.328125 1499.230469 1738.78125 C 1487.039062 1748.230469 1478.019531 1761.050781 1474.160156 1774.421875 C 1474.160156 1774.421875 1474.148438 1774.421875 1474.148438 1774.429688 C 1470.289062 1787.789062 1471.890625 1800.609375 1478.609375 1810.058594 C 1485.328125 1819.519531 1496.609375 1824.828125 1509.980469 1824.828125 C 1632.898438 1824.828125 1946.988281 1824.828125 2069.910156 1824.828125 C 2083.28125 1824.828125 2097.628906 1819.519531 2109.820312 1810.058594 C 2122.011719 1800.609375 2131.019531 1787.789062 2134.890625 1774.429688 C 2134.890625 1774.421875 2134.890625 1774.421875 2134.890625 1774.421875 "/>
<path fill-rule="evenodd" fill="rgb(39.598083%, 38.401794%, 27.098083%)" fill-opacity="1" d="M 2049.519531 1924.378906 C 2052.039062 1915.660156 2050.988281 1907.300781 2046.609375 1901.140625 C 2042.230469 1894.980469 2034.878906 1891.511719 2026.160156 1891.511719 C 1976.121094 1891.511719 1881.371094 1891.511719 1831.328125 1891.511719 C 1822.609375 1891.511719 1813.25 1894.980469 1805.300781 1901.140625 C 1797.359375 1907.300781 1791.480469 1915.660156 1788.960938 1924.378906 C 1786.441406 1933.101562 1787.480469 1941.460938 1791.859375 1947.621094 C 1796.238281 1953.78125 1803.601562 1957.238281 1812.320312 1957.238281 C 1862.359375 1957.238281 1957.109375 1957.238281 2007.148438 1957.238281 C 2015.871094 1957.238281 2025.230469 1953.78125 2033.171875 1947.621094 C 2041.121094 1941.460938 2047 1933.101562 2049.519531 1924.378906 "/>
<path fill-rule="evenodd" fill="rgb(65.039062%, 63.476562%, 48.608398%)" fill-opacity="1" d="M 1761.148438 1924.378906 C 1766.398438 1906.230469 1755.941406 1891.511719 1737.789062 1891.511719 C 1722.429688 1891.511719 1704.171875 1891.511719 1688.800781 1891.511719 C 1670.648438 1891.511719 1651.691406 1906.230469 1646.441406 1924.378906 C 1641.191406 1942.53125 1651.640625 1957.238281 1669.789062 1957.238281 C 1685.160156 1957.238281 1703.421875 1957.238281 1718.78125 1957.238281 C 1736.929688 1957.238281 1755.898438 1942.53125 1761.148438 1924.378906 "/>
<path fill-rule="evenodd" fill="rgb(18.406677%, 13.305664%, 34.49707%)" fill-opacity="1" d="M 1984.441406 1152.351562 C 2071.691406 1152.351562 2122.039062 1223.191406 2096.800781 1310.441406 C 2071.570312 1397.691406 1980.238281 1468.53125 1892.988281 1468.53125 C 1805.738281 1468.53125 1755.390625 1397.691406 1780.628906 1310.441406 C 1805.859375 1223.191406 1897.191406 1152.351562 1984.441406 1152.351562 "/>
<path fill-rule="evenodd" fill="rgb(100%, 100%, 100%)" fill-opacity="1" d="M 2018.539062 1221.621094 C 2031.449219 1211.78125 2045.761719 1211.78125 2050.488281 1221.621094 C 2050.488281 1221.628906 2050.488281 1221.628906 2050.488281 1221.628906 C 2055.21875 1231.46875 2048.589844 1247.429688 2035.671875 1257.269531 C 2007.960938 1278.390625 1965.511719 1310.738281 1965.511719 1310.738281 C 1965.511719 1310.738281 1981.058594 1343.101562 1991.21875 1364.210938 C 1995.949219 1374.050781 1989.308594 1390.011719 1976.398438 1399.851562 C 1976.398438 1399.851562 1976.390625 1399.859375 1976.390625 1399.859375 C 1963.480469 1409.699219 1949.171875 1409.699219 1944.441406 1399.859375 C 1934.289062 1378.738281 1918.730469 1346.390625 1918.730469 1346.390625 C 1918.730469 1346.390625 1875.539062 1379.308594 1847.851562 1400.410156 C 1835.328125 1409.941406 1821.460938 1409.941406 1816.878906 1400.410156 C 1816.699219 1400.039062 1816.53125 1399.671875 1816.351562 1399.308594 C 1811.761719 1389.769531 1818.191406 1374.300781 1830.710938 1364.761719 C 1858.398438 1343.660156 1901.589844 1310.738281 1901.589844 1310.738281 C 1901.589844 1310.738281 1885.929688 1278.171875 1875.789062 1257.058594 C 1873.539062 1252.390625 1873.820312 1246.058594 1876.570312 1239.449219 C 1879.308594 1232.851562 1884.300781 1226.511719 1890.429688 1221.839844 C 1890.609375 1221.699219 1890.800781 1221.558594 1890.988281 1221.410156 C 1897.121094 1216.738281 1903.878906 1214.121094 1909.808594 1214.121094 C 1915.730469 1214.121094 1920.308594 1216.738281 1922.558594 1221.410156 C 1932.710938 1242.519531 1948.371094 1275.101562 1948.371094 1275.101562 C 1948.371094 1275.101562 1990.828125 1242.738281 2018.539062 1221.621094 "/>
<path fill-rule="evenodd" fill="rgb(18.406677%, 13.305664%, 34.49707%)" fill-opacity="1" d="M 2027.890625 1002.101562 C 2040.230469 1002.101562 2047.339844 1012.109375 2043.78125 1024.441406 C 2040.210938 1036.769531 2027.300781 1046.78125 2014.96875 1046.78125 C 2002.640625 1046.78125 1995.519531 1036.769531 1999.089844 1024.441406 C 2002.648438 1012.109375 2015.558594 1002.101562 2027.890625 1002.101562 "/>
<path fill-rule="evenodd" fill="rgb(39.598083%, 38.401794%, 27.098083%)" fill-opacity="1" d="M 1776.300781 1116.511719 C 1776.300781 1105.25 1771.828125 1094.449219 1763.871094 1086.488281 C 1755.898438 1078.53125 1745.109375 1074.058594 1733.851562 1074.058594 C 1607.511719 1074.058594 1234.941406 1074.058594 1108.609375 1074.058594 C 1097.351562 1074.058594 1086.550781 1078.53125 1078.589844 1086.488281 C 1070.628906 1094.449219 1066.148438 1105.25 1066.148438 1116.511719 C 1066.148438 1130.589844 1066.148438 1146.261719 1066.148438 1160.339844 C 1066.148438 1171.601562 1070.628906 1182.398438 1078.589844 1190.359375 C 1086.550781 1198.320312 1097.351562 1202.789062 1108.609375 1202.789062 C 1234.941406 1202.789062 1607.511719 1202.789062 1733.851562 1202.789062 C 1745.109375 1202.789062 1755.898438 1198.320312 1763.871094 1190.359375 C 1771.828125 1182.398438 1776.300781 1171.601562 1776.300781 1160.339844 C 1776.300781 1146.261719 1776.300781 1130.589844 1776.300781 1116.511719 "/>
<path fill-rule="evenodd" fill="rgb(65.039062%, 63.476562%, 48.608398%)" fill-opacity="1" d="M 1770.421875 1104.761719 C 1770.421875 1093.511719 1765.941406 1082.710938 1757.980469 1074.738281 C 1750.019531 1066.78125 1739.21875 1062.308594 1727.960938 1062.308594 C 1601.628906 1062.308594 1229.058594 1062.308594 1102.71875 1062.308594 C 1091.460938 1062.308594 1080.671875 1066.78125 1072.699219 1074.738281 C 1064.738281 1082.710938 1060.269531 1093.511719 1060.269531 1104.761719 C 1060.269531 1118.839844 1060.269531 1134.511719 1060.269531 1148.589844 C 1060.269531 1159.859375 1064.738281 1170.648438 1072.699219 1178.609375 C 1080.671875 1186.578125 1091.460938 1191.050781 1102.71875 1191.050781 C 1229.058594 1191.050781 1601.628906 1191.050781 1727.960938 1191.050781 C 1739.21875 1191.050781 1750.019531 1186.578125 1757.980469 1178.609375 C 1765.941406 1170.648438 1770.421875 1159.859375 1770.421875 1148.589844 C 1770.421875 1134.511719 1770.421875 1118.839844 1770.421875 1104.761719 "/>
<path fill-rule="evenodd" fill="rgb(100%, 100%, 100%)" fill-opacity="1" d="M 1174.21875 1159.449219 L 1163.820312 1151.890625 L 1178.929688 1131.089844 L 1154.480469 1123.148438 L 1158.449219 1110.921875 L 1182.898438 1118.871094 L 1182.898438 1093.160156 L 1195.761719 1093.160156 L 1195.761719 1118.871094 L 1220.210938 1110.921875 L 1224.179688 1123.148438 L 1199.730469 1131.089844 L 1214.839844 1151.890625 L 1204.441406 1159.449219 L 1189.328125 1138.648438 L 1174.21875 1159.449219 "/>
<path fill-rule="evenodd" fill="rgb(100%, 100%, 100%)" fill-opacity="1" d="M 1276.160156 1159.449219 L 1265.761719 1151.890625 L 1280.871094 1131.089844 L 1256.421875 1123.148438 L 1260.390625 1110.921875 L 1284.839844 1118.871094 L 1284.839844 1093.160156 L 1297.699219 1093.160156 L 1297.699219 1118.871094 L 1322.148438 1110.921875 L 1326.121094 1123.148438 L 1301.671875 1131.089844 L 1316.78125 1151.890625 L 1306.378906 1159.449219 L 1291.269531 1138.648438 L 1276.160156 1159.449219 "/>
<path fill-rule="evenodd" fill="rgb(100%, 100%, 100%)" fill-opacity="1" d="M 1378.101562 1159.449219 L 1367.699219 1151.890625 L 1382.808594 1131.089844 L 1358.359375 1123.148438 L 1362.328125 1110.921875 L 1386.78125 1118.871094 L 1386.78125 1093.160156 L 1399.640625 1093.160156 L 1399.640625 1118.871094 L 1424.089844 1110.921875 L 1428.058594 1123.148438 L 1403.609375 1131.089844 L 1418.71875 1151.890625 L 1408.320312 1159.449219 L 1393.210938 1138.648438 L 1378.101562 1159.449219 "/>
<path fill-rule="evenodd" fill="rgb(100%, 100%, 100%)" fill-opacity="1" d="M 1480.039062 1159.449219 L 1469.640625 1151.890625 L 1484.75 1131.089844 L 1460.300781 1123.148438 L 1464.269531 1110.921875 L 1488.71875 1118.871094 L 1488.71875 1093.160156 L 1501.578125 1093.160156 L 1501.578125 1118.871094 L 1526.03125 1110.921875 L 1530 1123.148438 L 1505.550781 1131.089844 L 1520.660156 1151.890625 L 1510.261719 1159.449219 L 1495.148438 1138.648438 L 1480.039062 1159.449219 "/>
<path fill-rule="evenodd" fill="rgb(100%, 100%, 100%)" fill-opacity="1" d="M 1581.980469 1159.449219 L 1571.578125 1151.890625 L 1586.691406 1131.089844 L 1562.238281 1123.148438 L 1566.210938 1110.921875 L 1590.660156 1118.871094 L 1590.660156 1093.160156 L 1603.519531 1093.160156 L 1603.519531 1118.871094 L 1627.96875 1110.921875 L 1631.941406 1123.148438 L 1607.488281 1131.089844 L 1622.601562 1151.890625 L 1612.199219 1159.449219 L 1597.089844 1138.648438 L 1581.980469 1159.449219 "/>
<path fill-rule="evenodd" fill="rgb(18.406677%, 13.305664%, 34.49707%)" fill-opacity="1" d="M 658.933594 2362.847656 C 625.269531 2354.429688 504.570312 2282.863281 507.519531 2276.140625 C 517.371094 2253.6875 527.445312 2228.964844 537.371094 2206.546875 C 566.257812 2141.308594 577.390625 2077.535156 589.882812 2008.023438 C 594.273438 1983.609375 601.828125 1950.628906 629.890625 1943.808594 C 656.59375 1937.320312 681.902344 1955.070312 704.035156 1967.160156 C 736.042969 1984.640625 769.226562 1999.910156 805.585938 2005.378906 C 855.148438 2012.828125 900.980469 2000.800781 946.160156 1981.910156 C 954.058594 1978.609375 981.003906 1966.421875 986.070312 1979.601562 C 989.707031 1989.050781 1001.921875 2079.324219 1007.230469 2102.628906 C 1013.738281 2131.222656 1028.339844 2164.25 1028.339844 2193.160156 C 1028.339844 2231.253906 1024.628906 2267.761719 1026.421875 2305.488281 C 1027.820312 2335.253906 1009.390625 2384.296875 972.320312 2391.460938 C 951.78125 2395.429688 929.777344 2395.207031 908.921875 2396.65625 C 902.980469 2397.066406 890.519531 2397.6875 886.238281 2392.105469 C 880.277344 2384.339844 906.953125 2354.144531 910.398438 2347.503906 C 929.992188 2309.683594 921.863281 2315.226562 889.574219 2368.183594 C 866.789062 2405.546875 819.835938 2401.988281 782.496094 2395.011719 C 740.644531 2387.191406 700.171875 2373.15625 658.933594 2362.847656 "/>
<path fill-rule="evenodd" fill="rgb(100%, 100%, 100%)" fill-opacity="1" d="M 596.863281 1948.089844 C 599.910156 1943.910156 596.101562 1926.988281 595.808594 1922.070312 C 594.492188 1900.089844 593.003906 1877.839844 593.960938 1855.808594 C 592.816406 1855.179688 595.128906 1848.621094 595.328125 1847.601562 C 596.941406 1839.410156 597.933594 1831.121094 598.394531 1822.78125 C 599.652344 1800.109375 599.042969 1778.691406 593.359375 1756.691406 C 569.1875 1663.058594 551.816406 1571.210938 576.042969 1475.28125 C 583.605469 1445.320312 598.90625 1394.988281 628.582031 1378.128906 C 647.847656 1367.179688 675.769531 1388.921875 691.722656 1397.460938 C 735.472656 1420.878906 782.105469 1446.890625 831.957031 1453.808594 C 840.671875 1455.03125 849.507812 1455.359375 858.292969 1454.871094 C 864.433594 1454.519531 870.804688 1453.75 876.453125 1451.160156 C 881.066406 1449.039062 884.550781 1445.75 887.167969 1441.421875 C 889.480469 1437.578125 890.726562 1433.28125 891.019531 1428.820312 C 891.214844 1425.839844 891.144531 1422.691406 890.613281 1419.738281 C 889.496094 1413.53125 881.496094 1402.640625 877.535156 1413.410156 C 875.308594 1419.480469 876.804688 1425.921875 878.960938 1431.738281 C 861.113281 1445.828125 835.636719 1443.289062 814.839844 1437.441406 C 776.21875 1426.578125 742.121094 1406.398438 706.453125 1388.820312 C 694.980469 1383.171875 682.886719 1378.128906 670.5625 1374.660156 C 664.34375 1372.898438 654.746094 1372.710938 650.324219 1367.21875 C 643.960938 1359.320312 645.328125 1344.988281 646.140625 1335.648438 C 646.683594 1329.410156 647.503906 1322.71875 649.730469 1316.808594 C 652.816406 1308.621094 666.25 1316.609375 671.503906 1318.839844 C 673.414062 1319.660156 675.316406 1320.5 677.210938 1321.359375 C 706.625 1334.71875 737.078125 1346.039062 767.003906 1358.191406 C 781.90625 1364.25 796.765625 1370.53125 811.378906 1377.269531 C 826.769531 1384.359375 843.058594 1393 860.554688 1388.769531 C 873.109375 1385.730469 879.195312 1371.191406 877.09375 1359.339844 C 876.269531 1354.71875 872.324219 1343.128906 865.351562 1344.78125 C 864.023438 1345.101562 868.714844 1348.859375 869.0625 1349.171875 C 872.214844 1351.980469 875.386719 1354.589844 877.785156 1358.128906 C 882.9375 1365.730469 881.066406 1376.699219 886.578125 1383.421875 C 889.304688 1386.738281 894.734375 1387.921875 898.472656 1389.710938 C 904.371094 1392.53125 906.636719 1398.570312 911.289062 1403.171875 C 911.289062 1403.171875 911.289062 1403.171875 911.59375 1408.320312 C 910.984375 1409.671875 919.496094 1416.359375 920.222656 1417.46875 C 925.035156 1424.878906 929.3125 1432.628906 933.800781 1440.238281 C 949.074219 1466.128906 968.820312 1496.839844 972.015625 1527.699219 C 965.199219 1532.789062 950.984375 1527.398438 943.542969 1525.171875 C 922.421875 1518.859375 903.121094 1499.980469 885.683594 1487.058594 C 879.328125 1482.351562 868.449219 1472.691406 859.796875 1473.539062 C 850.253906 1474.46875 861.652344 1488.398438 864.367188 1490.78125 C 877.3125 1502.140625 895.433594 1505.511719 910.496094 1513.199219 C 930.441406 1523.378906 949.910156 1537.839844 973.210938 1537.988281 C 984.019531 1538.058594 994.644531 1534.808594 1005.039062 1532.191406 C 1008.238281 1531.378906 1014.539062 1529.640625 1016.628906 1533.429688 C 1019.171875 1538.050781 1013.519531 1543.410156 1010.621094 1546.078125 C 1000.851562 1555.089844 990.679688 1563.511719 981.929688 1573.570312 C 962.757812 1595.601562 954.496094 1624.019531 946.628906 1651.558594 C 940.226562 1673.960938 934.765625 1698.191406 935.695312 1721.628906 C 935.980469 1728.898438 938.054688 1747.820312 950.035156 1738.839844 C 963.21875 1728.949219 959.386719 1713.160156 960.738281 1699.429688 C 961.152344 1695.21875 963.273438 1688.480469 968.664062 1690.628906 C 975.460938 1693.351562 974.382812 1704.011719 972.515625 1709.449219 C 968.011719 1722.578125 951.738281 1734.480469 938.601562 1736.828125 C 919.039062 1740.328125 896.007812 1727.28125 877.605469 1721.96875 C 836.203125 1710.039062 792.785156 1710.589844 753.539062 1690.058594 C 735.628906 1680.679688 713.351562 1664.53125 713.785156 1641.671875 C 713.984375 1631.089844 722.976562 1628.550781 727.421875 1638.101562 C 736.457031 1657.519531 737.300781 1678.109375 752.964844 1694.589844 C 769.261719 1711.738281 791.703125 1710 813.152344 1713.328125 C 824.226562 1715.050781 834.136719 1719.140625 844.1875 1723.910156 C 844.21875 1725.960938 847.441406 1725.878906 849.054688 1726.328125 C 854.894531 1727.960938 860.699219 1729.699219 866.539062 1731.320312 C 880.957031 1735.308594 895.578125 1738.039062 909.886719 1742.53125 C 916.808594 1744.699219 925.425781 1747.511719 929.300781 1754.210938 C 943.050781 1777.980469 937.65625 1808.921875 943.90625 1834.808594 C 948.703125 1854.679688 961.144531 1870.699219 968.75 1889.359375 C 976.699219 1908.871094 1001.011719 1920.890625 1000.601562 1941.628906 C 1000.441406 1949.640625 1001.449219 1959.789062 996.519531 1966.691406 C 990.011719 1975.789062 976.816406 1979.28125 966.652344 1982.128906 C 964.3125 1986.359375 952.839844 1989.171875 948.804688 1991.019531 C 926.878906 2001.0625 902.707031 2005.660156 878.855469 2008.171875 C 788.070312 2017.722656 674.703125 1990.769531 596.863281 1948.089844 "/>
<g clip-path="url(#clip-2)">
<g clip-path="url(#clip-3)">
<path fill-rule="evenodd" fill="rgb(23.094177%, 21.604919%, 54.881287%)" fill-opacity="1" d="M 948.332031 2017.925781 C 955.085938 2006.636719 952.226562 1983.609375 951.722656 1971.351562 C 951.199219 1958.691406 950.453125 1945.578125 946.289062 1933.5 C 936.304688 1904.53125 911.148438 1884.628906 889.285156 1864.558594 C 866.488281 1843.628906 843.574219 1823.058594 820.261719 1802.699219 C 804.609375 1789.03125 789.816406 1774.328125 775.128906 1759.640625 C 753.835938 1738.351562 695.15625 1687.921875 715.035156 1636.78125 C 716.054688 1634.160156 729.054688 1664.769531 729.597656 1665.589844 C 735.132812 1673.96875 740.957031 1683.070312 747.90625 1690.359375 C 764.125 1707.351562 788.675781 1708.878906 810.933594 1713.339844 C 848.777344 1720.941406 894.023438 1725.699219 928.765625 1743.550781 C 956.125 1757.609375 978.09375 1781.949219 994.777344 1807.28125 C 1029.390625 1859.828125 1069.921875 1977.769531 948.332031 2017.925781 "/>
</g>
</g>
<path fill-rule="evenodd" fill="rgb(65.039062%, 63.476562%, 48.608398%)" fill-opacity="1" d="M 648.140625 1208.050781 C 635.585938 1203.289062 624.089844 1200.039062 616.109375 1214.660156 C 610.171875 1225.53125 614.082031 1239.359375 619.972656 1249.410156 C 631.890625 1269.761719 651.664062 1285.410156 675.957031 1279.269531 C 683.4375 1277.371094 683.414062 1268.679688 676.597656 1265.789062 C 671.148438 1263.480469 666.371094 1267.878906 661.210938 1268.648438 C 651.5625 1270.078125 640.53125 1263.21875 635.167969 1255.660156 C 621.269531 1236.058594 633.648438 1211.089844 658.921875 1216.988281 C 670.460938 1219.679688 678.472656 1229.558594 684.503906 1239.171875 C 696.355469 1258.058594 703.691406 1279.039062 717.621094 1296.761719 C 749.761719 1337.660156 810.871094 1353.308594 860.84375 1347.570312 C 890.425781 1344.179688 918.847656 1330.75 928.636719 1300.539062 C 935.835938 1278.320312 928.902344 1255.359375 926.734375 1232.921875 C 924.371094 1208.460938 916.484375 1173.808594 909.535156 1149.960938 C 901.265625 1121.570312 890.527344 1109.539062 874.257812 1085.769531 C 862.660156 1068.839844 854.679688 1046.359375 839.253906 1032.429688 C 829.1875 1023.328125 814.664062 1018.519531 801.40625 1016.890625 C 793.332031 1015.898438 785.15625 1015.820312 777.046875 1016.390625 C 765.070312 1017.230469 752.828125 1019.351562 741.492188 1023.371094 C 674.390625 1047.199219 681.933594 1133.230469 686.542969 1190.730469 C 687.734375 1205.578125 691.421875 1219.320312 700.777344 1231.179688 C 704.753906 1236.230469 709.347656 1240.050781 714.46875 1243.839844 C 715.398438 1244.53125 717.925781 1247.128906 716.152344 1248.289062 C 711.390625 1251.429688 701.132812 1242.421875 698.488281 1239.589844 C 686.117188 1226.378906 667.554688 1214.660156 648.140625 1208.050781 "/>
<g clip-path="url(#clip-4)">
<g clip-path="url(#clip-5)">
<path fill-rule="evenodd" fill="rgb(39.598083%, 38.401794%, 27.098083%)" fill-opacity="1" d="M 875.234375 1062.808594 C 874.835938 1062.859375 873.726562 1072.898438 873.527344 1073.828125 C 871.691406 1082.359375 868.902344 1092.660156 859.277344 1094.859375 C 851.699219 1096.589844 842.59375 1094.351562 835.074219 1093.089844 C 821.167969 1090.761719 807.515625 1087.910156 793.316406 1088.808594 C 782.070312 1089.519531 771.023438 1092 760.601562 1096.300781 C 752.359375 1099.699219 743.683594 1104.21875 737.597656 1110.898438 C 732.460938 1116.550781 728.640625 1123.878906 726.199219 1131.058594 C 721.015625 1146.359375 717.359375 1165.75 726.71875 1179.46875 C 758.6875 1226.351562 721.503906 1268.039062 759.101562 1281.660156 C 825.078125 1305.539062 820.488281 1325.460938 877.699219 1316.03125 C 935 1306.589844 948.199219 1276.980469 948.199219 1276.980469 C 948.199219 1276.980469 955.488281 1308.941406 949.519531 1321.78125 C 932.933594 1357.421875 897.5625 1370.878906 860.078125 1370.921875 C 767.621094 1371.03125 600.121094 1295 600.773438 1197.828125 C 602.691406 1182.121094 685.03125 1223.699219 681.617188 1213.929688 C 668.332031 1175.859375 657.394531 1139.019531 670.609375 1113.390625 C 702.816406 1050.929688 798.054688 1019.230469 875.234375 1062.808594 "/>
</g>
</g>
<path fill-rule="evenodd" fill="rgb(5.099487%, 5.099487%, 5.099487%)" fill-opacity="1" d="M 703.527344 1106.25 C 735.472656 1102.078125 754.339844 1065.769531 786.167969 1058.820312 C 798.011719 1056.230469 812.050781 1055.101562 823.3125 1060.378906 C 838.179688 1067.351562 848.523438 1081.371094 865.878906 1083.601562 C 893.875 1087.191406 887.671875 1051.941406 879.527344 1037.71875 C 875.113281 1030.019531 868.996094 1023.679688 862.421875 1017.640625 C 860.558594 1015.929688 873.675781 998.019531 874.855469 994.390625 C 880.621094 976.671875 880.542969 955.410156 871.109375 938.921875 C 856.871094 914.03125 830.09375 901.429688 801.90625 896.140625 C 740.789062 884.660156 673.476562 915.339844 636.964844 962.058594 C 630.621094 952.460938 617.339844 953.539062 607.054688 956.648438 C 583.328125 963.800781 567.6875 983.011719 557.53125 1003.949219 C 532.988281 1054.550781 549.25 1110.71875 584.117188 1152.339844 C 585.53125 1154.039062 516.882812 1160.839844 492.9375 1209.640625 C 472.28125 1251.730469 485.578125 1306.058594 521.25 1333.269531 C 518.875 1330.980469 509.136719 1338.140625 507.445312 1339.328125 C 332.632812 1462.160156 562.789062 1634.949219 557.03125 1606.03125 C 549.257812 1566.980469 565.035156 1504.988281 564.539062 1489.941406 C 563.851562 1469.148438 571.945312 1450.378906 579.625 1430.96875 C 590.535156 1403.390625 611.535156 1382.039062 629.695312 1354.71875 C 637.082031 1343.601562 633.320312 1325.320312 641.496094 1316.101562 C 650.027344 1306.46875 669.402344 1331.238281 672.894531 1315.648438 C 675.839844 1302.5 655.789062 1296.539062 646.71875 1292.421875 C 627.726562 1283.789062 611.953125 1270.03125 607.941406 1249.480469 C 606.628906 1242.75 606.617188 1235.429688 607.960938 1228.699219 C 611.292969 1211.980469 623.660156 1190.769531 643.824219 1202.089844 C 649.910156 1205.511719 665.398438 1223.601562 672.292969 1213.890625 C 677.632812 1206.371094 673.683594 1192.371094 672.667969 1184.179688 C 670.125 1163.648438 688.21875 1123.648438 703.527344 1106.25 "/>
<path fill-rule="evenodd" fill="rgb(65.039062%, 63.476562%, 48.608398%)" fill-opacity="1" d="M 680.5625 1245.828125 C 676.3125 1234.828125 669.324219 1227.511719 656.804688 1225.53125 C 648.179688 1224.160156 636.1875 1228.609375 637.355469 1239.101562 C 637.511719 1240.5 637.902344 1241.859375 638.507812 1243.128906 C 645.472656 1257.648438 665.238281 1251.109375 677.007812 1256.949219 C 681.410156 1259.128906 684.15625 1262.53125 686.78125 1266.570312 C 688.089844 1268.578125 690.046875 1272.449219 692.652344 1273.089844 C 696.015625 1273.929688 694.726562 1267.578125 694.296875 1266.230469 C 694.113281 1265.648438 693.914062 1265.078125 693.699219 1264.511719 C 690.511719 1256.050781 685.132812 1253.589844 680.5625 1245.828125 "/>
<path fill-rule="evenodd" fill="rgb(39.598083%, 38.401794%, 27.098083%)" fill-opacity="1" d="M 692.375 1288.910156 C 691.609375 1289.921875 692.871094 1295.199219 692.960938 1296.429688 C 693.394531 1302.359375 693.441406 1308.140625 692.101562 1313.960938 C 691.5625 1316.300781 690.125 1319.890625 692.367188 1321.820312 C 696.5625 1325.421875 704.515625 1330.871094 709.621094 1331.558594 C 719.652344 1332.929688 729.632812 1335 739.203125 1338.339844 C 764.695312 1347.238281 785.925781 1359.609375 810.566406 1370.25 C 813.039062 1371.320312 815.542969 1372.320312 818.039062 1373.339844 C 825.863281 1376.511719 845.886719 1386.171875 851.492188 1374.320312 C 852.605469 1371.96875 852.789062 1369.078125 852.753906 1366.511719 C 852.714844 1363.878906 852.894531 1357.191406 850.859375 1355.101562 C 848.882812 1353.078125 843.007812 1354.21875 840.605469 1354.398438 C 831.625 1355.050781 822.714844 1355.980469 813.71875 1354.921875 C 795.390625 1352.761719 776.796875 1345.089844 760.617188 1336.410156 C 737.65625 1324.070312 720.5625 1309.859375 703.71875 1290.929688 C 697.488281 1283.929688 689.402344 1276.570312 692.375 1288.910156 "/>
<path fill-rule="evenodd" fill="rgb(65.039062%, 63.476562%, 48.608398%)" fill-opacity="1" d="M 971.113281 1617.828125 C 975.628906 1647.910156 926.980469 1711.589844 946.265625 1726.089844 C 980.335938 1751.691406 1138.839844 1718.921875 1193.71875 1704.710938 C 1296.761719 1678.03125 1373.570312 1638.800781 1476.589844 1528.628906 C 1496.28125 1507.578125 1546.199219 1483.710938 1560.421875 1458.480469 C 1560.421875 1458.488281 1560.421875 1458.488281 1560.421875 1458.488281 C 1560 1458.371094 1560.589844 1456.421875 1560.640625 1456.121094 C 1561.089844 1453.339844 1561.25 1450.539062 1561.269531 1447.71875 C 1561.351562 1440.078125 1561.640625 1431.660156 1560.070312 1424.160156 C 1558.230469 1415.359375 1550.960938 1410.761719 1547.539062 1403.011719 C 1546.550781 1400.78125 1545.949219 1395.730469 1549.441406 1395.351562 C 1553.519531 1394.910156 1557.199219 1399.441406 1559.410156 1402.191406 C 1567.308594 1411.988281 1568.679688 1423.011719 1567.578125 1435.171875 C 1567.21875 1439.128906 1565.261719 1448.878906 1571.679688 1449.070312 C 1576.25 1449.210938 1580.539062 1446.28125 1584.089844 1443.761719 C 1592.28125 1437.960938 1599.628906 1430.960938 1607.070312 1424.261719 C 1620.921875 1411.761719 1636.101562 1399.679688 1653.210938 1391.96875 C 1666.578125 1385.949219 1681.46875 1383.21875 1694.398438 1376.308594 C 1702.628906 1371.921875 1716.199219 1361.46875 1714.890625 1350.53125 C 1713.839844 1341.828125 1700.480469 1342.601562 1694.269531 1343.261719 C 1673.710938 1345.449219 1655.941406 1357.5 1640.820312 1370.828125 C 1638.148438 1373.191406 1626.628906 1383.070312 1622.828125 1377.101562 C 1621.300781 1374.699219 1624.070312 1371.921875 1625.878906 1370.738281 C 1631.539062 1367.011719 1638.339844 1365.011719 1644.359375 1361.910156 C 1656.71875 1355.539062 1667.941406 1348.320312 1681.851562 1345.691406 C 1690.640625 1344.03125 1702.089844 1347.320312 1710.28125 1343.78125 C 1714.628906 1341.890625 1714.980469 1335.539062 1714.289062 1331.570312 C 1711.960938 1318.230469 1700.269531 1312.660156 1687.558594 1313.648438 C 1667.949219 1315.179688 1652.140625 1328.289062 1633.53125 1333.320312 C 1627.21875 1335.03125 1620.390625 1336.378906 1613.820312 1336.039062 C 1611.71875 1335.941406 1608.148438 1335.808594 1606.941406 1333.691406 C 1605.429688 1331.019531 1609.339844 1329.308594 1611.171875 1328.570312 C 1617.609375 1325.980469 1624.871094 1325.199219 1631.730469 1324.589844 C 1644.441406 1323.46875 1657.109375 1323.480469 1669.710938 1321.171875 C 1679.589844 1319.351562 1688.71875 1315.679688 1698.371094 1313.121094 C 1706.019531 1311.101562 1718.339844 1309.46875 1718.789062 1299.359375 C 1719.421875 1285.121094 1704.898438 1274.101562 1691.898438 1273.078125 C 1680.558594 1272.199219 1669.699219 1275.871094 1659.019531 1279.171875 C 1644.640625 1283.628906 1616.871094 1299.761719 1621.03125 1302.628906 C 1622.441406 1303.601562 1641.96875 1292.289062 1652.109375 1286.738281 C 1670.039062 1276.910156 1687.878906 1267.589844 1708.121094 1263.570312 C 1717.921875 1261.621094 1727.96875 1262.578125 1737.820312 1261.269531 C 1745.46875 1260.25 1756.800781 1254.058594 1752.230469 1244.410156 C 1749.390625 1238.441406 1741.910156 1236.078125 1735.941406 1234.988281 C 1721.488281 1232.359375 1706.121094 1233.980469 1691.679688 1235.761719 C 1657.421875 1239.980469 1615.859375 1245.800781 1590.539062 1271.75 C 1579.390625 1283.191406 1572.691406 1298.621094 1566.191406 1313 C 1566.390625 1313.140625 1562.148438 1319.261719 1561.890625 1319.628906 C 1556.480469 1327.511719 1550.101562 1334.800781 1543.859375 1342.03125 C 1517.308594 1372.828125 1480.121094 1390.339844 1444.261719 1408.050781 C 1366.078125 1446.648438 1287.691406 1485.898438 1204.949219 1513.960938 C 1164.660156 1527.621094 1122.761719 1542.300781 1079.828125 1544.058594 C 1061.660156 1544.808594 1045.28125 1539.109375 1027.53125 1537.371094 C 1026.738281 1540.289062 966.371094 1586.210938 971.113281 1617.828125 "/>
<g clip-path="url(#clip-6)">
<g clip-path="url(#clip-7)">
<path fill-rule="evenodd" fill="rgb(39.598083%, 38.401794%, 27.098083%)" fill-opacity="1" d="M 1718.761719 1338.339844 C 1718.019531 1342.121094 1713.878906 1346.671875 1711.660156 1349.640625 C 1704.621094 1359.078125 1693.050781 1367.429688 1681.390625 1369.949219 C 1671.351562 1372.109375 1661.371094 1370.910156 1651.800781 1375.480469 C 1638.789062 1381.710938 1630.351562 1393.878906 1618.148438 1401.238281 C 1609.121094 1406.699219 1597.511719 1409.261719 1587.28125 1405.898438 C 1579.160156 1403.230469 1572.429688 1397.21875 1568.070312 1389.941406 C 1565.699219 1385.96875 1564.75 1381.691406 1563.429688 1377.320312 C 1563.03125 1376.011719 1562.558594 1373.148438 1561.128906 1372.46875 C 1559.179688 1371.53125 1554.878906 1373.269531 1553.089844 1373.949219 C 1551.359375 1374.601562 1549.730469 1375.488281 1548.238281 1376.570312 C 1545.988281 1378.210938 1544.289062 1380.25 1542.660156 1382.488281 C 1540.238281 1385.808594 1538.980469 1389.351562 1538.308594 1393.390625 C 1537.421875 1398.828125 1539.179688 1404.039062 1540.378906 1409.300781 C 1542.640625 1419.238281 1544.601562 1428.878906 1543.761719 1439.128906 C 1544.789062 1437.800781 1541.078125 1441.210938 1540.019531 1442.519531 C 1537.761719 1445.300781 1535.46875 1448.050781 1533.039062 1450.691406 C 1525.851562 1458.511719 1518.21875 1465.921875 1510.96875 1473.691406 C 1489.828125 1496.351562 1461.648438 1513.03125 1435.539062 1529.238281 C 1402.28125 1549.878906 1370.789062 1573.660156 1336.511719 1592.601562 C 1284.988281 1621.050781 1230.621094 1641.769531 1173.710938 1656.691406 C 1151.691406 1662.46875 1129.261719 1667.421875 1106.691406 1670.511719 C 1091.488281 1672.589844 1075.96875 1673.710938 1060.648438 1674.550781 C 1051.171875 1675.070312 1041.679688 1674.890625 1032.289062 1673.390625 C 1026.769531 1672.511719 1021.398438 1670.839844 1016.101562 1669.011719 C 943.09375 1643.710938 1031.769531 1531.808594 1031.769531 1531.808594 C 1031.769531 1531.808594 870.296875 1609.851562 925.253906 1716.171875 C 952.367188 1768.609375 1035.949219 1763.101562 1084.890625 1759.070312 C 1098.949219 1757.910156 1112.949219 1756.351562 1126.921875 1754.328125 C 1142.511719 1752.078125 1158.03125 1749.21875 1173.410156 1745.820312 C 1358.648438 1704.828125 1516.820312 1589.570312 1641.511719 1450.371094 C 1666.46875 1422.5 1737.019531 1379.378906 1718.761719 1338.339844 "/>
</g>
</g>
<g clip-path="url(#clip-8)">
<g clip-path="url(#clip-9)">
<path fill-rule="evenodd" fill="rgb(39.598083%, 38.401794%, 27.098083%)" fill-opacity="1" d="M 1734.28125 1224.96875 C 1735.398438 1223.988281 1738.988281 1230.421875 1739.359375 1231.078125 C 1742.640625 1236.949219 1744.269531 1244.289062 1737.449219 1248.199219 C 1727.058594 1254.148438 1712.019531 1251.960938 1700.570312 1254.011719 C 1680.238281 1257.648438 1660.078125 1264.539062 1642.089844 1274.738281 C 1640.078125 1275.878906 1638.078125 1277.050781 1636.140625 1278.300781 C 1634.5 1279.351562 1632.898438 1280.480469 1631.359375 1281.660156 C 1630.230469 1282.519531 1629.121094 1283.410156 1628.058594 1284.351562 C 1624.921875 1287.128906 1617.128906 1295.25 1620.199219 1300.359375 C 1620.871094 1301.480469 1623.269531 1299.449219 1623.859375 1299.058594 C 1627.75 1296.53125 1631.421875 1293.730469 1635.46875 1291.449219 C 1645.710938 1285.671875 1656.871094 1280.980469 1668.109375 1277.589844 C 1680.878906 1273.738281 1693.910156 1269.421875 1707.269531 1268.230469 C 1721.691406 1266.941406 1736.109375 1269.050781 1749.941406 1263.421875 C 1760.5 1259.128906 1769.519531 1246.980469 1761.921875 1235.988281 C 1759.960938 1233.140625 1737.21875 1226.730469 1734.28125 1224.96875 "/>
</g>
</g>
</svg>
